<svg xmlns="http://www.w3.org/2000/svg" viewBox="0 0 149.8 149.8">
  <!-- SVG created with Arrow, by QuiverAI (https://quiver.ai) -->
  <defs>
    <filter id="white-outline" x="-18%" y="-18%" width="136%" height="136%">
      <feMorphology in="SourceAlpha" operator="dilate" radius="3.2" result="outline" />
      <feFlood flood-color="#ffffff" flood-opacity="0.92" result="outline-color" />
      <feComposite in="outline-color" in2="outline" operator="in" result="outline-fill" />
      <feMerge>
        <feMergeNode in="outline-fill" />
        <feMergeNode in="SourceGraphic" />
      </feMerge>
    </filter>
  </defs>
  <style type="text/css">
    .cls-0 {
      fill: #f5f6fa;
    }
    .cls-1 {
      fill: #474f55;
    }
    .cls-2 {
      fill: #5b646a;
    }
    .cls-3 {
      fill: none;
      stroke: #2c3339;
      stroke-width: 2.3924;
      stroke-linecap: round;
      stroke-linejoin: round;
      stroke-miterlimit: 10;
    }
    .cls-4 {
      fill: #6d767e;
    }
    .cls-5 {
      fill: #9aa3a8;
    }
    .cls-6 {
      fill: none;
      stroke: #2c3339;
      stroke-width: 2.3803;
      stroke-linecap: round;
      stroke-linejoin: round;
      stroke-miterlimit: 10;
    }
    .cls-7 {
      fill: #454d53;
    }
    .cls-8 {
      fill: #626b72;
    }
    .cls-9 {
      opacity: 0.2;
      fill: #ffffff;
    }
  </style>
  <g transform="translate(0 3.9)" filter="url(#white-outline)">
    <path class="cls-1" d="m121.5 16c-0.2-2.9-3.1-5.9-6-5.4l-50.3 13.3c-2.2 0.4-4.2-2.9-7.4-5.9l-2-0.5-38.7 10.3c-3.3 1.1-6.9 5.1-6.9 8.9v83.1c0.5 6.1 5.8 11.8 10.4 12.2h0.2l99.1-32.3 1.6-83.7z" />
    <path class="cls-7" d="m10.2 73.9v45.5c0.1 5.5 4.8 11.4 10.3 12.6h0.6l11.3-64.2-22.2 6.1z" />
    <path class="cls-8" d="m19.2 30.1 39.8-10.3-4.1-2.3-37.5 10.3c-3.5 1.1-7.2 5-7.2 8.9v1.3c0-3.3 3.7-7.6 9-7.9z" />
    <path class="cls-4" d="m13.2 119.3v-81.6h-3v82.1c0.5 4.8 4.5 11.3 10.4 12.2l0.2-0.9c-4.7-2.8-7.4-7-7.6-11.8z" />
    <path class="cls-9" d="m67.6 26.2 51.9-13.3c-0.9-0.8-2.5-1.6-4-1.3l-50 12.6-6.1-4.5-1.1 0.3c2.9 3 6.5 6.8 9.3 6.2z" />
    <path class="cls-6" d="m121.6 16c-0.1-3-2.9-6.1-6.1-5.5l-50.1 13.4c-2.3 0.5-2.5-0.7-5.7-4-1.1-1.3-3.2-2.4-4.8-1.9l-38 9.8c-3.3 1.1-6.8 5.1-6.8 8.9v83.1c0.4 6.3 6.1 12.5 10.8 12.1l98.7-31.3 2-84.6z" />
    <path class="cls-2" d="m133.3 21.4-51.5 13.8c-2 0.8-4.3 4.8-5.6 7.2l-35.4 9.7c-3.2 0.9-6.8 4.8-7.3 7.8l-13.2 72 100.6-31.1c2.7-0.7 5.2-3.7 5.8-6.8l12.4-66.4c0.1-3.4-2.6-6.4-5.8-6.2z" />
    <path class="cls-9" d="m84 37.2 53.8-13.5-3.7-2.3-52.5 13.5c-1.8 0.6-4.3 5-5.7 7.4l-35.6 9.7c-3.2 1-6.7 4.9-7.2 8l-12.6 71.4 2.9-1.6 13-67.3c0.7-3.5 3.6-6.7 6.7-7.3l34.8-10.2c1-0.1 1.2-1.5 3.5-5 1.2-1.9 2.6-2.8 2.6-2.8z" />
    <path class="cls-7" d="m23.8 125.3c-0.7 2.8-0.8 3.8-2.5 5.8l98.6-30.2c3.1-0.6 6-3.6 6.6-7.6l-102.7 32z" />
    <path class="cls-5" d="m133.2 22c1.7 0 2.6 0.3 3.7 1.8l-52.5 13.4c-2 0.7-3.2 3.2-6.1 7.6l-35.9 9.7c-2.6 1-5.6 4.2-6.1 7.8l-15 68.3-0.3 0.6-0.4-0.1 13-70.8c0.5-3.3 3.7-7.2 7.5-8.1l35.2-9.5c1.4-2.8 3.4-6.9 5.6-7.7l51.3-13z" />
    <path class="cls-3" d="m133.5 21.4-51.7 13.6c-2 0.6-3.7 3.8-5.5 7.2l-35.4 9.8c-3.2 1-6.9 4.8-7.5 8.4l-13.1 71.5 100.6-31.1c2.9-0.8 5.4-3.8 6-6.8l12.3-66.4c0.1-3-2.3-6.2-5.7-6.2z" />
  </g>
</svg>
